<svg width="1381" height="371" viewBox="0 0 1381 371" fill="none" xmlns="http://www.w3.org/2000/svg">
<g clip-path="url(#clip0_1206_779)">
<path d="M837.539 363.896C758.517 363.896 701.178 322.94 701.178 260.3C701.178 217.898 735.87 186.579 764.781 178.869C735.87 165.859 713.224 138.395 713.224 101.775C713.224 40.5807 766.708 0.587891 837.539 0.587891C907.888 0.587891 961.372 40.5807 961.372 101.775C961.372 138.395 938.726 165.859 909.815 178.869C938.726 186.579 973.418 217.898 973.418 260.3C973.418 322.94 916.079 363.896 837.539 363.896ZM837.539 153.332C870.304 153.332 896.324 135.985 896.324 103.22C896.324 70.9367 870.304 53.1086 837.539 53.1086C804.774 53.1086 778.272 70.9367 778.272 103.22C778.272 135.985 804.774 153.332 837.539 153.332ZM837.539 310.412C877.532 310.412 904.033 289.211 904.033 257.891C904.033 225.608 877.532 204.889 837.539 204.889C797.064 204.889 770.563 225.608 770.563 257.891C770.563 289.211 797.064 310.412 837.539 310.412Z" fill="white"/>
<path d="M624.24 67.564H444.995V6.37012H700.371V67.0821C619.422 151.404 596.293 246.809 596.293 358.114H523.535C523.535 234.763 560.637 135.985 624.24 67.564Z" fill="white"/>
<path d="M425.021 71.9005C425.021 111.412 393.22 143.213 353.709 143.213C314.68 143.213 282.878 111.412 282.878 71.9005C282.878 32.3895 314.68 0.587891 353.709 0.587891C393.22 0.587891 425.021 32.3895 425.021 71.9005ZM323.353 71.9005C323.353 89.2468 336.844 103.22 353.709 103.22C371.055 103.22 384.065 89.2468 384.065 71.9005C384.065 54.5542 371.055 40.5808 353.709 40.5808C336.844 40.5808 323.353 54.5542 323.353 71.9005Z" fill="white"/>
<path d="M69.3851 231.872V358.114H0V6.37012H143.589C216.347 6.37012 267.904 44.9174 267.904 119.121C267.904 192.361 216.347 231.872 143.589 231.872H69.3851ZM140.216 66.1184H69.3851V172.124H140.216C178.763 172.124 199.482 150.923 199.482 119.121C199.482 86.3558 178.763 66.1184 140.216 66.1184Z" fill="white"/>
<path d="M1379.11 184.856C1379.11 83.7735 1297.17 1.83025 1196.08 1.83025C1095 1.83025 1013.06 83.7735 1013.06 184.856C1013.06 285.938 1095 367.881 1196.08 367.881V369.711C1093.99 369.711 1011.23 286.949 1011.23 184.856C1011.23 82.7627 1093.99 0 1196.08 0C1298.18 0 1380.94 82.7627 1380.94 184.856C1380.94 286.949 1298.18 369.711 1196.08 369.711V367.881C1297.17 367.881 1379.11 285.938 1379.11 184.856Z" fill="white"/>
<path d="M1379.12 185.511C1379.12 134.547 1375.05 88.4588 1368.5 55.1554C1365.22 38.4886 1361.33 25.1176 1357.07 15.9586C1354.94 11.3749 1352.76 7.94407 1350.58 5.6849C1348.41 3.42794 1346.4 2.48553 1344.56 2.48553C1342.71 2.48553 1340.7 3.42794 1338.53 5.6849C1336.36 7.94407 1334.18 11.3749 1332.04 15.9586C1327.78 25.1176 1323.9 38.4886 1320.62 55.1554C1314.06 88.4588 1310 134.547 1310 185.511C1310 236.474 1314.06 282.563 1320.62 315.866C1323.9 332.533 1327.78 345.904 1332.04 355.063C1334.18 359.647 1336.36 363.078 1338.53 365.337C1340.7 367.594 1342.71 368.536 1344.56 368.536V370.366C1324.47 370.366 1308.18 287.604 1308.18 185.511C1308.18 83.4179 1324.47 0.655273 1344.56 0.655273C1364.65 0.655273 1380.94 83.4179 1380.94 185.511C1380.94 287.604 1364.65 370.366 1344.56 370.366V368.536C1346.4 368.536 1348.41 367.594 1350.58 365.337C1352.76 363.078 1354.94 359.647 1357.07 355.063C1361.33 345.904 1365.22 332.533 1368.5 315.866C1375.05 282.563 1379.12 236.474 1379.12 185.511Z" fill="white"/>
<path d="M1379.11 185.511C1379.11 134.551 1374.83 88.4664 1367.92 55.1697C1364.46 38.5075 1360.37 25.1444 1355.88 15.9908C1353.63 11.4111 1351.33 7.9795 1349.04 5.71707C1346.75 3.46051 1344.6 2.48553 1342.59 2.48553C1340.58 2.48553 1338.43 3.46051 1336.14 5.71707C1333.85 7.9795 1331.55 11.4111 1329.3 15.9908C1324.81 25.1444 1320.72 38.5075 1317.26 55.1697C1310.35 88.4664 1306.07 134.551 1306.07 185.511C1306.07 236.471 1310.35 282.555 1317.26 315.852C1320.72 332.514 1324.81 345.877 1329.3 355.031C1331.55 359.611 1333.85 363.042 1336.14 365.305C1338.43 367.561 1340.58 368.536 1342.59 368.536V370.366C1321.41 370.366 1304.24 287.604 1304.24 185.511C1304.24 83.4179 1321.41 0.655273 1342.59 0.655273C1363.77 0.655273 1380.94 83.4179 1380.94 185.511C1380.94 287.604 1363.77 370.366 1342.59 370.366V368.536C1344.6 368.536 1346.75 367.561 1349.04 365.305C1351.33 363.042 1353.63 359.611 1355.88 355.031C1360.37 345.877 1364.46 332.514 1367.92 315.852C1374.83 282.555 1379.11 236.471 1379.11 185.511Z" fill="white"/>
<path d="M1379.11 185.511C1379.11 134.555 1374.6 88.4776 1367.34 55.1875C1363.71 38.5276 1359.4 25.1685 1354.69 16.0194C1352.33 11.4438 1349.91 8.01165 1347.5 5.74567C1345.09 3.48781 1342.8 2.48553 1340.62 2.48553C1338.45 2.48553 1336.16 3.48781 1333.75 5.74567C1331.34 8.01165 1328.92 11.4438 1326.56 16.0194C1321.85 25.1685 1317.54 38.5276 1313.91 55.1875C1306.65 88.4776 1302.14 134.555 1302.14 185.511C1302.14 236.467 1306.65 282.544 1313.91 315.834C1317.54 332.494 1321.85 345.853 1326.56 355.002C1328.92 359.578 1331.34 363.01 1333.75 365.276C1336.16 367.534 1338.45 368.536 1340.62 368.536V370.366C1318.36 370.366 1300.31 287.604 1300.31 185.511C1300.31 83.4179 1318.36 0.655273 1340.62 0.655273C1362.89 0.655273 1380.94 83.4179 1380.94 185.511C1380.94 287.604 1362.89 370.366 1340.62 370.366V368.536C1342.8 368.536 1345.09 367.534 1347.5 365.276C1349.91 363.01 1352.33 359.578 1354.69 355.002C1359.4 345.853 1363.71 332.494 1367.34 315.834C1374.6 282.544 1379.11 236.467 1379.11 185.511Z" fill="white"/>
<path d="M1379.11 185.511C1379.11 134.56 1374.43 88.4888 1366.87 55.2054C1363.09 38.5498 1358.62 25.1963 1353.71 16.0516C1351.26 11.4779 1348.74 8.04091 1346.22 5.77069C1343.71 3.51082 1341.3 2.48553 1338.99 2.48553C1336.67 2.48553 1334.26 3.51082 1331.75 5.77069C1329.23 8.04091 1326.72 11.4779 1324.26 16.0516C1319.35 25.1963 1314.88 38.5498 1311.1 55.2054C1303.54 88.4888 1298.86 134.56 1298.86 185.511C1298.86 236.462 1303.54 282.533 1311.1 315.816C1314.88 332.473 1319.35 345.829 1324.26 354.974C1326.71 359.547 1329.23 362.981 1331.75 365.251C1334.26 367.511 1336.67 368.536 1338.99 368.536V370.366C1315.82 370.366 1297.03 287.604 1297.03 185.511C1297.03 83.4179 1315.82 0.655273 1338.99 0.655273C1362.16 0.655273 1380.94 83.4179 1380.94 185.511C1380.94 287.604 1362.16 370.366 1338.99 370.366V368.536C1341.3 368.536 1343.71 367.511 1346.22 365.251C1348.74 362.981 1351.26 359.547 1353.71 354.974C1358.62 345.829 1363.09 332.473 1366.87 315.816C1374.43 282.533 1379.11 236.462 1379.11 185.511Z" fill="white"/>
<path d="M1379.11 185.511C1379.11 134.564 1374.2 88.4967 1366.3 55.2197C1362.34 38.5684 1357.65 25.2209 1352.52 16.0802C1347.3 6.7887 1341.99 2.48553 1337.02 2.48553C1332.05 2.48553 1326.74 6.7887 1321.52 16.0802C1316.38 25.2209 1311.7 38.5684 1307.74 55.2197C1299.84 88.4967 1294.93 134.564 1294.93 185.511C1294.93 236.458 1299.84 282.525 1307.74 315.802C1311.7 332.453 1316.38 345.801 1321.52 354.942C1326.74 364.233 1332.05 368.536 1337.02 368.536V370.366C1312.76 370.366 1293.1 287.604 1293.1 185.511C1293.1 83.4179 1312.76 0.655273 1337.02 0.655273C1361.28 0.655273 1380.94 83.4179 1380.94 185.511C1380.94 287.604 1361.28 370.366 1337.02 370.366V368.536C1341.99 368.536 1347.3 364.233 1352.52 354.942C1357.65 345.801 1362.34 332.453 1366.3 315.802C1374.2 282.525 1379.11 236.458 1379.11 185.511Z" fill="white"/>
<path d="M1379.1 185.511C1379.1 134.568 1373.98 88.5082 1365.72 55.2376C1361.58 38.5883 1356.69 25.2428 1351.33 16.1052C1345.89 6.84093 1340.33 2.48553 1335.05 2.48553C1329.78 2.48553 1324.21 6.84093 1318.78 16.1052C1313.41 25.2428 1308.52 38.5883 1304.39 55.2376C1296.13 88.5082 1291 134.568 1291 185.511C1291 236.454 1296.13 282.514 1304.39 315.784C1308.52 332.433 1313.41 345.779 1318.78 354.917C1324.21 364.181 1329.78 368.536 1335.05 368.536V370.366C1309.71 370.366 1289.17 287.604 1289.17 185.511C1289.17 83.4179 1309.71 0.655273 1335.05 0.655273C1360.39 0.655273 1380.94 83.4179 1380.94 185.511C1380.94 287.604 1360.39 370.366 1335.05 370.366V368.536C1340.33 368.536 1345.89 364.181 1351.33 354.917C1356.69 345.779 1361.58 332.433 1365.72 315.784C1373.98 282.514 1379.1 236.454 1379.1 185.511Z" fill="white"/>
<path d="M1379.11 185.511C1379.11 134.573 1373.8 88.5198 1365.25 55.2554C1360.97 38.6095 1355.9 25.2686 1350.35 16.1338C1344.73 6.89139 1338.96 2.48553 1333.41 2.48553C1327.87 2.48553 1322.1 6.89139 1316.48 16.1338C1310.92 25.2686 1305.86 38.6095 1301.58 55.2554C1293.03 88.5198 1287.72 134.573 1287.72 185.511C1287.72 236.449 1293.03 282.502 1301.58 315.766C1305.86 332.412 1310.92 345.753 1316.48 354.888C1322.1 364.13 1327.87 368.536 1333.41 368.536V370.366C1307.17 370.366 1285.89 287.604 1285.89 185.511C1285.89 83.4179 1307.17 0.655273 1333.41 0.655273C1359.66 0.655273 1380.94 83.4179 1380.94 185.511C1380.94 287.604 1359.66 370.366 1333.41 370.366V368.536C1338.96 368.536 1344.73 364.13 1350.35 354.888C1355.9 345.753 1360.97 332.412 1365.25 315.766C1373.8 282.502 1379.11 236.449 1379.11 185.511Z" fill="white"/>
<path d="M1379.11 185.511C1379.11 134.577 1373.58 88.5279 1364.67 55.2697C1360.22 38.628 1354.94 25.2908 1349.16 16.1588C1343.32 6.93676 1337.29 2.48553 1331.45 2.48553C1325.6 2.48553 1319.57 6.93676 1313.73 16.1588C1307.95 25.2908 1302.68 38.628 1298.22 55.2697C1289.32 88.5279 1283.79 134.577 1283.79 185.511C1283.79 236.445 1289.32 282.494 1298.22 315.752C1302.68 332.394 1307.95 345.731 1313.73 354.863C1319.57 364.085 1325.6 368.536 1331.45 368.536V370.366C1304.11 370.366 1281.96 287.604 1281.96 185.511C1281.96 83.4179 1304.11 0.655273 1331.45 0.655273C1358.78 0.655273 1380.94 83.4179 1380.94 185.511C1380.94 287.604 1358.78 370.366 1331.45 370.366V368.536C1337.29 368.536 1343.32 364.085 1349.16 354.863C1354.94 345.731 1360.22 332.394 1364.67 315.752C1373.58 282.494 1379.11 236.445 1379.11 185.511Z" fill="white"/>
<path d="M1379.11 185.511C1379.11 134.585 1373.18 88.5481 1363.63 55.3019C1358.85 38.6671 1353.19 25.3371 1347 16.2089C1340.75 7.01874 1334.25 2.48553 1327.84 2.48553C1321.44 2.48553 1314.93 7.01874 1308.69 16.2089C1302.49 25.3371 1296.83 38.6671 1292.06 55.3019C1282.51 88.5481 1276.58 134.585 1276.58 185.511C1276.58 236.436 1282.51 282.474 1292.06 315.72C1296.83 332.355 1302.49 345.685 1308.69 354.813C1314.93 364.003 1321.44 368.536 1327.84 368.536V370.366C1298.52 370.366 1274.75 287.604 1274.75 185.511C1274.75 83.4179 1298.52 0.655273 1327.84 0.655273C1357.17 0.655273 1380.94 83.4179 1380.94 185.511C1380.94 287.604 1357.17 370.366 1327.84 370.366V368.536C1334.25 368.536 1340.75 364.003 1347 354.813C1353.19 345.685 1358.85 332.355 1363.63 315.72C1373.18 282.474 1379.11 236.436 1379.11 185.511Z" fill="white"/>
<path d="M1379.11 185.511C1379.11 134.594 1372.78 88.5687 1362.58 55.3341C1357.48 38.7059 1351.45 25.3813 1344.83 16.2553C1338.18 7.08887 1331.2 2.48553 1324.24 2.48553C1317.28 2.48553 1310.29 7.08887 1303.64 16.2553C1297.03 25.3813 1290.99 38.7059 1285.89 55.3341C1275.7 88.5687 1269.36 134.594 1269.36 185.511C1269.36 236.427 1275.7 282.453 1285.89 315.688C1290.99 332.316 1297.03 345.64 1303.64 354.766C1310.29 363.933 1317.28 368.536 1324.24 368.536V370.366C1292.92 370.366 1267.53 287.604 1267.53 185.511C1267.53 83.4179 1292.92 0.655273 1324.24 0.655273C1355.55 0.655273 1380.94 83.4179 1380.94 185.511C1380.94 287.604 1355.55 370.366 1324.24 370.366V368.536C1331.2 368.536 1338.18 363.933 1344.83 354.766C1351.45 345.64 1357.48 332.316 1362.58 315.688C1372.78 282.453 1379.11 236.427 1379.11 185.511Z" fill="white"/>
<path d="M1379.11 185.511C1379.11 134.603 1372.38 88.5898 1361.54 55.3663C1356.12 38.7453 1349.7 25.4268 1342.66 16.3018C1335.6 7.15182 1328.14 2.48553 1320.63 2.48553C1313.12 2.48553 1305.66 7.15207 1298.61 16.3018C1291.57 25.4269 1285.15 38.7445 1279.72 55.3663C1268.88 88.5898 1262.15 134.603 1262.15 185.511C1262.15 236.418 1268.88 282.432 1279.72 315.655C1285.15 332.277 1291.57 345.595 1298.61 354.72C1305.66 363.87 1313.12 368.536 1320.63 368.536V370.366C1287.32 370.366 1260.32 287.604 1260.32 185.511C1260.32 83.4179 1287.32 0.655273 1320.63 0.655273C1353.94 0.655273 1380.94 83.4179 1380.94 185.511C1380.94 287.604 1353.94 370.366 1320.63 370.366V368.536C1328.14 368.536 1335.6 363.87 1342.66 354.72C1349.7 345.595 1356.12 332.276 1361.54 315.655C1372.38 282.432 1379.11 236.418 1379.11 185.511Z" fill="white"/>
<path d="M1379.11 185.511C1379.11 134.613 1371.98 88.6113 1360.5 55.3984C1354.75 38.7833 1347.95 25.4663 1340.49 16.3411C1333.02 7.20328 1325.08 2.48553 1317.03 2.48553C1308.97 2.48553 1301.03 7.20328 1293.56 16.3411C1286.1 25.4663 1279.3 38.7833 1273.56 55.3984C1262.07 88.6113 1254.94 134.613 1254.94 185.511C1254.94 236.409 1262.07 282.41 1273.56 315.623C1279.3 332.238 1286.1 345.555 1293.56 354.681C1301.03 363.818 1308.97 368.536 1317.03 368.536V370.366C1281.73 370.366 1253.11 287.604 1253.11 185.511C1253.11 83.4179 1281.73 0.655273 1317.03 0.655273C1352.32 0.655273 1380.94 83.4179 1380.94 185.511C1380.94 287.604 1352.32 370.366 1317.03 370.366V368.536C1325.08 368.536 1333.02 363.818 1340.49 354.681C1347.95 345.555 1354.75 332.238 1360.5 315.623C1371.98 282.41 1379.11 236.409 1379.11 185.511Z" fill="white"/>
<path d="M1379.11 185.511C1379.11 134.622 1371.58 88.6299 1359.45 55.427C1353.38 38.8186 1346.2 25.5066 1338.32 16.3804C1330.44 7.24921 1322.02 2.48553 1313.42 2.48553C1304.82 2.48553 1296.4 7.24921 1288.52 16.3804C1280.64 25.5066 1273.46 38.8186 1267.39 55.427C1255.26 88.6299 1247.73 134.622 1247.73 185.511C1247.73 236.4 1255.26 282.392 1267.39 315.595C1273.46 332.203 1280.64 345.515 1288.52 354.641C1296.4 363.773 1304.82 368.536 1313.42 368.536V370.366C1276.13 370.366 1245.9 287.604 1245.9 185.511C1245.9 83.4179 1276.13 0.655273 1313.42 0.655273C1350.71 0.655273 1380.94 83.4179 1380.94 185.511C1380.94 287.604 1350.71 370.366 1313.42 370.366V368.536C1322.02 368.536 1330.44 363.773 1338.32 354.641C1346.2 345.515 1353.38 332.203 1359.45 315.595C1371.58 282.392 1379.11 236.4 1379.11 185.511Z" fill="white"/>
<path d="M1379.11 185.511C1379.11 134.637 1370.96 88.6621 1357.83 55.4735C1351.27 38.8741 1343.5 25.5636 1334.96 16.4341C1326.43 7.30765 1317.27 2.48553 1307.85 2.48553C1298.43 2.48553 1289.26 7.30765 1280.73 16.4341C1272.2 25.5636 1264.43 38.8741 1257.86 55.4735C1244.74 88.6621 1236.59 134.637 1236.59 185.511C1236.59 236.385 1244.74 282.36 1257.86 315.548C1264.43 332.148 1272.2 345.458 1280.73 354.588C1289.26 363.714 1298.43 368.536 1307.85 368.536V370.366C1267.48 370.366 1234.76 287.604 1234.76 185.511C1234.76 83.4179 1267.48 0.655273 1307.85 0.655273C1348.22 0.655273 1380.94 83.4179 1380.94 185.511C1380.94 287.604 1348.22 370.366 1307.85 370.366V368.536C1317.27 368.536 1326.43 363.714 1334.96 354.588C1343.5 345.458 1351.27 332.148 1357.83 315.548C1370.96 282.36 1379.11 236.385 1379.11 185.511Z" fill="white"/>
<path d="M1379.11 185.511C1379.11 134.655 1370.15 88.7022 1355.74 55.5307C1348.54 38.9421 1340.01 25.631 1330.62 16.4948C1321.25 7.36747 1311.12 2.48553 1300.64 2.48553C1290.16 2.48553 1280.03 7.36747 1270.65 16.4948C1261.27 25.631 1252.74 38.9421 1245.53 55.5307C1231.12 88.7022 1222.16 134.655 1222.16 185.511C1222.16 236.366 1231.12 282.319 1245.53 315.491C1252.74 332.08 1261.27 345.391 1270.65 354.527C1280.03 363.654 1290.16 368.536 1300.64 368.536V370.366C1256.29 370.366 1220.34 287.604 1220.34 185.511C1220.34 83.4179 1256.29 0.655273 1300.64 0.655273C1344.99 0.655273 1380.94 83.4179 1380.94 185.511C1380.94 287.604 1344.99 370.366 1300.64 370.366V368.536C1311.12 368.536 1321.25 363.654 1330.62 354.527C1340.01 345.391 1348.54 332.08 1355.74 315.491C1370.15 282.319 1379.11 236.366 1379.11 185.511Z" fill="white"/>
<path d="M1379.11 185.511C1379.11 134.68 1369.09 88.7517 1352.99 55.5986C1336.82 22.3197 1314.83 2.48553 1291.13 2.48553C1267.43 2.48553 1245.45 22.3197 1229.28 55.5986C1213.17 88.7517 1203.16 134.68 1203.16 185.511C1203.16 236.342 1213.17 282.27 1229.28 315.423C1245.45 348.702 1267.43 368.536 1291.13 368.536V370.366C1241.53 370.366 1201.33 287.604 1201.33 185.511C1201.33 83.4179 1241.53 0.655273 1291.13 0.655273C1340.73 0.655273 1380.94 83.4179 1380.94 185.511C1380.94 287.604 1340.73 370.366 1291.13 370.366V368.536C1314.83 368.536 1336.82 348.702 1352.99 315.423C1369.09 282.27 1379.11 236.342 1379.11 185.511Z" fill="white"/>
<path d="M1379.11 185.511C1379.11 134.705 1368.08 88.7973 1350.33 55.6594C1332.55 22.4443 1308.28 2.48553 1281.96 2.48553C1255.63 2.48553 1231.36 22.4443 1213.58 55.6594C1195.83 88.7973 1184.81 134.705 1184.81 185.511C1184.81 236.317 1195.83 282.224 1213.58 315.362C1231.36 348.577 1255.63 368.536 1281.96 368.536V370.366C1227.29 370.366 1182.97 287.604 1182.97 185.511C1182.97 83.4179 1227.29 0.655273 1281.96 0.655273C1336.62 0.655273 1380.94 83.4179 1380.94 185.511C1380.94 287.604 1336.62 370.366 1281.96 370.366V368.536C1308.28 368.536 1332.55 348.577 1350.33 315.362C1368.08 282.224 1379.11 236.317 1379.11 185.511Z" fill="white"/>
<path d="M1379.11 185.511C1379.11 134.741 1366.66 88.867 1346.64 55.7452C1326.59 22.5888 1299.15 2.48553 1269.17 2.48553C1239.2 2.48553 1211.76 22.5888 1191.71 55.7452C1171.69 88.867 1159.24 134.741 1159.24 185.511C1159.24 236.28 1171.69 282.155 1191.71 315.277C1211.76 348.433 1239.2 368.536 1269.17 368.536V370.366C1207.45 370.366 1157.41 287.604 1157.41 185.511C1157.41 83.4179 1207.45 0.655273 1269.17 0.655273C1330.9 0.655273 1380.94 83.4179 1380.94 185.511C1380.94 287.604 1330.9 370.366 1269.17 370.366V368.536C1299.15 368.536 1326.59 348.433 1346.64 315.277C1366.66 282.155 1379.11 236.28 1379.11 185.511Z" fill="white"/>
<path d="M1379.11 185.511C1379.11 134.79 1364.85 88.9512 1341.9 55.8417C1318.94 22.7251 1287.4 2.48553 1252.79 2.48553C1218.17 2.48553 1186.63 22.7251 1163.67 55.8417C1140.72 88.9512 1126.46 134.79 1126.46 185.511C1126.46 236.231 1140.72 282.071 1163.67 315.18C1186.63 348.297 1218.17 368.536 1252.79 368.536V370.366C1182.01 370.366 1124.63 287.604 1124.63 185.511C1124.63 83.4179 1182.01 0.655273 1252.79 0.655273C1323.56 0.655273 1380.94 83.4179 1380.94 185.511C1380.94 287.604 1323.56 370.366 1252.79 370.366V368.536C1287.4 368.536 1318.94 348.297 1341.9 315.18C1364.85 282.071 1379.11 236.231 1379.11 185.511Z" fill="white"/>
<path d="M1379.11 185.511C1379.11 84.0311 1313.1 2.48553 1232.46 2.48553C1151.83 2.48553 1085.82 84.0311 1085.82 185.511C1085.82 286.991 1151.83 368.536 1232.46 368.536V370.366C1150.46 370.366 1083.99 287.604 1083.99 185.511C1083.99 83.4179 1150.46 0.655273 1232.46 0.655273C1314.46 0.655273 1380.94 83.4179 1380.94 185.511C1380.94 287.604 1314.46 370.366 1232.46 370.366V368.536C1313.1 368.536 1379.11 286.991 1379.11 185.511Z" fill="white"/>
<path d="M1379.11 185.511C1379.11 84.2446 1305.21 2.48553 1214.44 2.48553C1123.67 2.48553 1049.77 84.2446 1049.77 185.511C1049.77 286.777 1123.67 368.536 1214.44 368.536V370.366C1122.48 370.366 1047.94 287.604 1047.94 185.511C1047.94 83.4179 1122.48 0.655273 1214.44 0.655273C1306.39 0.655273 1380.94 83.4179 1380.94 185.511C1380.94 287.604 1306.39 370.366 1214.44 370.366V368.536C1305.21 368.536 1379.11 286.777 1379.11 185.511Z" fill="white"/>
</g>
<defs>
<clipPath id="clip0_1206_779">
<rect width="1381" height="371" fill="white"/>
</clipPath>
</defs>
</svg>
