<svg width="512" height="512" viewBox="0 0 512 512" fill="none" xmlns="http://www.w3.org/2000/svg">
<rect width="512" height="512" rx="100" fill="#F2F2F2"/>
<path d="M438.881 255.856C438.881 154.773 356.938 72.8303 255.856 72.8303C154.773 72.8303 72.8303 154.773 72.8303 255.856C72.8303 356.938 154.773 438.881 255.856 438.881V440.711C153.763 440.711 71 357.949 71 255.856C71 153.763 153.763 71 255.856 71C357.949 71 440.711 153.763 440.711 255.856C440.711 357.949 357.949 440.711 255.856 440.711V438.881C356.938 438.881 438.881 356.938 438.881 255.856Z" fill="black"/>
<path d="M438.892 256.511C438.892 205.547 434.827 159.459 428.273 126.155C424.993 109.489 421.105 96.1176 416.844 86.9586C414.711 82.3749 412.528 78.9441 410.356 76.6849C408.185 74.4279 406.174 73.4855 404.33 73.4855C402.487 73.4855 400.475 74.4279 398.305 76.6849C396.132 78.9441 393.95 82.3749 391.817 86.9586C387.556 96.1176 383.668 109.489 380.388 126.155C373.834 159.459 369.768 205.547 369.768 256.511C369.768 307.474 373.834 353.563 380.388 386.866C383.668 403.533 387.556 416.904 391.817 426.063C393.95 430.647 396.132 434.078 398.305 436.337C400.475 438.594 402.487 439.536 404.33 439.536V441.366C384.238 441.366 367.949 358.604 367.949 256.511C367.949 154.418 384.238 71.6553 404.33 71.6553C424.423 71.6553 440.712 154.418 440.712 256.511C440.712 358.604 424.423 441.366 404.33 441.366V439.536C406.174 439.536 408.185 438.594 410.356 436.337C412.528 434.078 414.711 430.647 416.844 426.063C421.105 416.904 424.993 403.533 428.273 386.866C434.827 353.563 438.892 307.474 438.892 256.511Z" fill="black"/>
<path d="M438.885 256.511C438.885 205.551 434.6 159.466 427.693 126.17C424.237 109.507 420.142 96.1444 415.652 86.9908C413.406 82.4111 411.105 78.9795 408.812 76.7171C406.524 74.4605 404.373 73.4855 402.363 73.4855C400.354 73.4855 398.203 74.4605 395.915 76.7171C393.622 78.9795 391.32 82.4111 389.074 86.9908C384.585 96.1444 380.49 109.507 377.034 126.17C370.126 159.466 365.842 205.551 365.842 256.511C365.842 307.471 370.126 353.555 377.034 386.852C380.49 403.514 384.585 416.877 389.074 426.031C391.32 430.611 393.622 434.042 395.915 436.305C398.203 438.561 400.354 439.536 402.363 439.536V441.366C381.184 441.366 364.016 358.604 364.016 256.511C364.016 154.418 381.184 71.6553 402.363 71.6553C423.542 71.6553 440.711 154.418 440.711 256.511C440.711 358.604 423.542 441.366 402.363 441.366V439.536C404.373 439.536 406.524 438.561 408.812 436.305C411.105 434.042 413.406 430.611 415.652 426.031C420.142 416.877 424.237 403.514 427.693 386.852C434.6 353.555 438.885 307.471 438.885 256.511Z" fill="black"/>
<path d="M438.879 256.511C438.879 205.555 434.375 159.478 427.115 126.188C423.481 109.528 419.177 96.1685 414.459 87.0194C412.1 82.4438 409.684 79.0116 407.269 76.7457C404.863 74.4878 402.57 73.4855 400.397 73.4855C398.224 73.4855 395.932 74.4878 393.526 76.7457C391.111 79.0116 388.695 82.4438 386.335 87.0194C381.618 96.1685 377.313 109.528 373.68 126.188C366.42 159.478 361.915 205.555 361.915 256.511C361.915 307.467 366.42 353.544 373.68 386.834C377.313 403.494 381.618 416.853 386.335 426.002C388.695 430.578 391.111 434.01 393.526 436.276C395.932 438.534 398.224 439.536 400.397 439.536V441.366C378.132 441.366 360.083 358.604 360.083 256.511C360.083 154.418 378.132 71.6553 400.397 71.6553C422.662 71.6553 440.712 154.418 440.712 256.511C440.712 358.604 422.662 441.366 400.397 441.366V439.536C402.57 439.536 404.863 438.534 407.269 436.276C409.684 434.01 412.1 430.578 414.459 426.002C419.177 416.853 423.481 403.494 427.115 386.834C434.375 353.544 438.879 307.467 438.879 256.511Z" fill="black"/>
<path d="M438.887 256.511C438.887 205.56 434.199 159.489 426.646 126.205C422.866 109.55 418.388 96.1963 413.482 87.0516C411.028 82.4779 408.511 79.0409 405.993 76.7707C403.487 74.5108 401.074 73.4855 398.758 73.4855C396.441 73.4855 394.029 74.5108 391.522 76.7707C389.004 79.0409 386.488 82.4779 384.034 87.0516C379.127 96.1963 374.65 109.55 370.87 126.205C363.316 159.489 358.629 205.56 358.629 256.511C358.629 307.462 363.316 353.533 370.87 386.816C374.65 403.473 379.127 416.829 384.034 425.974C386.487 430.547 389.005 433.981 391.522 436.251C394.029 438.511 396.441 439.536 398.758 439.536V441.366C375.588 441.366 356.805 358.604 356.805 256.511C356.805 154.418 375.588 71.6553 398.758 71.6553C421.928 71.6553 440.711 154.418 440.711 256.511C440.711 358.604 421.928 441.366 398.758 441.366V439.536C401.074 439.536 403.487 438.511 405.993 436.251C408.511 433.981 411.028 430.547 413.482 425.974C418.389 416.829 422.865 403.473 426.646 386.816C434.199 353.533 438.887 307.462 438.887 256.511Z" fill="black"/>
<path d="M438.881 256.511C438.881 205.564 433.974 159.497 426.068 126.22C422.112 109.568 417.427 96.2209 412.293 87.0802C407.074 77.7887 401.763 73.4855 396.792 73.4855C391.82 73.4855 386.51 77.7887 381.29 87.0802C376.156 96.2209 371.472 109.568 367.516 126.22C359.609 159.497 354.702 205.564 354.702 256.511C354.702 307.458 359.609 353.525 367.516 386.802C371.472 403.453 376.156 416.801 381.29 425.942C386.51 435.233 391.82 439.536 396.792 439.536V441.366C372.536 441.366 352.872 358.604 352.872 256.511C352.872 154.418 372.536 71.6553 396.792 71.6553C421.048 71.6553 440.711 154.418 440.711 256.511C440.711 358.604 421.048 441.366 396.792 441.366V439.536C401.763 439.536 407.074 435.233 412.293 425.942C417.427 416.801 422.112 403.453 426.068 386.802C433.974 353.525 438.881 307.458 438.881 256.511Z" fill="black"/>
<path d="M438.875 256.511C438.875 205.568 433.748 159.508 425.489 126.238C421.357 109.588 416.463 96.2428 411.1 87.1052C405.663 77.8409 400.101 73.4855 394.825 73.4855C389.548 73.4855 383.987 77.8409 378.549 87.1052C373.187 96.2428 368.293 109.588 364.16 126.238C355.901 159.508 350.774 205.568 350.774 256.511C350.774 307.454 355.901 353.514 364.16 386.784C368.293 403.433 373.187 416.779 378.549 425.917C383.987 435.181 389.548 439.536 394.825 439.536V441.366C369.482 441.366 348.938 358.604 348.938 256.511C348.938 154.418 369.482 71.6553 394.825 71.6553C420.167 71.6553 440.711 154.418 440.711 256.511C440.711 358.604 420.167 441.366 394.825 441.366V439.536C400.101 439.536 405.663 435.181 411.1 425.917C416.462 416.779 421.357 403.433 425.489 386.784C433.748 353.514 438.875 307.454 438.875 256.511Z" fill="black"/>
<path d="M438.883 256.511C438.883 205.573 433.572 159.52 425.02 126.255C420.741 109.609 415.675 96.2686 410.123 87.1338C404.505 77.8914 398.729 73.4855 393.186 73.4855C387.643 73.4855 381.868 77.8914 376.25 87.1338C370.697 96.2686 365.631 109.609 361.352 126.255C352.8 159.52 347.489 205.573 347.489 256.511C347.489 307.449 352.8 353.502 361.352 386.766C365.631 403.412 370.697 416.753 376.25 425.888C381.868 435.13 387.643 439.536 393.186 439.536V441.366C366.939 441.366 345.661 358.604 345.661 256.511C345.661 154.418 366.939 71.6553 393.186 71.6553C419.433 71.6553 440.711 154.418 440.711 256.511C440.711 358.604 419.433 441.366 393.186 441.366V439.536C398.729 439.536 404.505 435.13 410.123 425.888C415.675 416.753 420.741 403.412 425.02 386.766C433.572 353.502 438.883 307.449 438.883 256.511Z" fill="black"/>
<path d="M438.878 256.511C438.878 205.577 433.348 159.528 424.443 126.27C419.988 109.628 414.715 96.2908 408.934 87.1588C403.097 77.9368 397.065 73.4855 391.22 73.4855C385.375 73.4855 379.343 77.9368 373.506 87.1588C367.725 96.2908 362.452 109.628 357.997 126.27C349.092 159.528 343.562 205.577 343.562 256.511C343.562 307.445 349.092 353.494 357.997 386.752C362.452 403.394 367.725 416.731 373.506 425.863C379.343 435.085 385.375 439.536 391.22 439.536V441.366C363.887 441.366 341.729 358.604 341.729 256.511C341.729 154.418 363.887 71.6553 391.22 71.6553C418.553 71.6553 440.711 154.418 440.711 256.511C440.711 358.604 418.553 441.366 391.22 441.366V439.536C397.065 439.536 403.097 435.085 408.934 425.863C414.715 416.731 419.988 403.394 424.443 386.752C433.348 353.494 438.878 307.445 438.878 256.511Z" fill="black"/>
<path d="M438.88 256.511C438.88 205.585 432.949 159.548 423.4 126.302C418.621 109.667 412.967 96.3371 406.768 87.2089C400.526 78.0187 394.02 73.4855 387.614 73.4855C381.208 73.4855 374.702 78.0187 368.461 87.2089C362.262 96.3371 356.607 109.667 351.829 126.302C342.28 159.548 336.349 205.585 336.349 256.511C336.349 307.436 342.28 353.474 351.829 386.72C356.607 403.355 362.262 416.685 368.461 425.813C374.702 435.003 381.208 439.536 387.614 439.536V441.366C358.29 441.366 334.518 358.604 334.518 256.511C334.518 154.418 358.29 71.6553 387.614 71.6553C416.939 71.6553 440.711 154.418 440.711 256.511C440.711 358.604 416.939 441.366 387.614 441.366V439.536C394.02 439.536 400.526 435.003 406.768 425.813C412.967 416.685 418.621 403.355 423.4 386.72C432.949 353.474 438.88 307.436 438.88 256.511Z" fill="black"/>
<path d="M438.882 256.511C438.882 205.594 432.55 159.569 422.356 126.334C417.255 109.706 411.219 96.3813 404.6 87.2553C397.953 78.0889 390.97 73.4855 384.009 73.4855C377.048 73.4855 370.065 78.0889 363.417 87.2553C356.799 96.3813 350.763 109.706 345.662 126.334C335.468 159.569 329.136 205.594 329.136 256.511C329.136 307.427 335.468 353.453 345.662 386.688C350.763 403.316 356.799 416.64 363.417 425.766C370.065 434.933 377.048 439.536 384.009 439.536V441.366C352.693 441.366 327.307 358.604 327.307 256.511C327.307 154.418 352.693 71.6553 384.009 71.6553C415.325 71.6553 440.711 154.418 440.711 256.511C440.711 358.604 415.325 441.366 384.009 441.366V439.536C390.97 439.536 397.953 434.933 404.6 425.766C411.219 416.64 417.255 403.316 422.356 386.688C432.55 353.453 438.882 307.427 438.882 256.511Z" fill="black"/>
<path d="M438.884 256.511C438.884 205.603 432.151 159.59 421.312 126.366C415.89 109.745 409.472 96.4268 402.434 87.3018C395.377 78.1518 387.915 73.4855 380.404 73.4855C372.893 73.4855 365.435 78.1521 358.378 87.3018C351.339 96.4269 344.919 109.744 339.496 126.366C328.657 159.59 321.924 205.603 321.924 256.511C321.924 307.418 328.657 353.432 339.496 386.655C344.919 403.277 351.339 416.595 358.378 425.72C365.435 434.87 372.893 439.536 380.404 439.536V441.366C347.097 441.366 320.097 358.604 320.097 256.511C320.097 154.418 347.097 71.6553 380.404 71.6553C413.711 71.6553 440.712 154.418 440.712 256.511C440.712 358.604 413.711 441.366 380.404 441.366V439.536C387.915 439.536 395.377 434.87 402.434 425.72C409.472 416.595 415.89 403.276 421.312 386.655C432.151 353.432 438.884 307.418 438.884 256.511Z" fill="black"/>
<path d="M438.885 256.511C438.885 205.613 431.751 159.611 420.268 126.398C414.523 109.783 407.722 96.4663 400.263 87.3411C392.793 78.2033 384.854 73.4855 376.799 73.4855C368.743 73.4855 360.804 78.2033 353.334 87.3411C345.875 96.4663 339.074 109.783 333.329 126.398C321.846 159.611 314.712 205.613 314.712 256.511C314.712 307.409 321.846 353.41 333.329 386.623C339.074 403.238 345.875 416.555 353.334 425.681C360.804 434.818 368.743 439.536 376.799 439.536V441.366C341.5 441.366 312.886 358.604 312.886 256.511C312.886 154.418 341.5 71.6553 376.799 71.6553C412.097 71.6553 440.711 154.418 440.711 256.511C440.711 358.604 412.097 441.366 376.799 441.366V439.536C384.854 439.536 392.793 434.818 400.263 425.681C407.722 416.555 414.523 403.238 420.268 386.623C431.751 353.41 438.885 307.409 438.885 256.511Z" fill="black"/>
<path d="M438.886 256.511C438.886 205.622 431.351 159.63 419.223 126.427C413.157 109.819 405.976 96.5066 398.095 87.3804C390.21 78.2492 381.789 73.4855 373.193 73.4855C364.597 73.4855 356.176 78.2492 348.291 87.3804C340.41 96.5066 333.229 109.819 327.163 126.427C315.035 159.63 307.5 205.622 307.5 256.511C307.5 307.4 315.035 353.392 327.163 386.595C333.229 403.203 340.41 416.515 348.291 425.641C356.176 434.773 364.597 439.536 373.193 439.536V441.366C335.904 441.366 305.675 358.604 305.675 256.511C305.675 154.418 335.904 71.6553 373.193 71.6553C410.482 71.6553 440.711 154.418 440.711 256.511C440.711 358.604 410.482 441.366 373.193 441.366V439.536C381.789 439.536 390.21 434.773 398.095 425.641C405.976 416.515 413.157 403.203 419.223 386.595C431.351 353.392 438.886 307.4 438.886 256.511Z" fill="black"/>
<path d="M438.884 256.511C438.884 205.637 430.729 159.662 417.607 126.474C411.043 109.874 403.272 96.5636 394.737 87.4341C386.206 78.3076 377.042 73.4855 367.621 73.4855C358.201 73.4855 349.037 78.3076 340.505 87.4341C331.971 96.5636 324.199 109.874 317.636 126.474C304.514 159.662 296.359 205.637 296.359 256.511C296.359 307.385 304.514 353.36 317.636 386.548C324.199 403.148 331.971 416.458 340.505 425.588C349.037 434.714 358.201 439.536 367.621 439.536V441.366C327.255 441.366 294.531 358.604 294.531 256.511C294.531 154.418 327.255 71.6553 367.621 71.6553C407.988 71.6553 440.711 154.418 440.711 256.511C440.711 358.604 407.988 441.366 367.621 441.366V439.536C377.042 439.536 386.206 434.714 394.737 425.588C403.272 416.458 411.043 403.148 417.607 386.548C430.729 353.36 438.884 307.385 438.884 256.511Z" fill="black"/>
<path d="M438.886 256.511C438.886 205.655 429.927 159.702 415.517 126.531C408.311 109.942 399.778 96.631 390.395 87.4948C381.02 78.3675 370.891 73.4855 360.41 73.4855C349.93 73.4855 339.8 78.3675 330.426 87.4948C321.043 96.631 312.509 109.942 305.303 126.531C290.894 159.702 281.934 205.655 281.934 256.511C281.934 307.366 290.894 353.319 305.303 386.491C312.509 403.08 321.043 416.391 330.426 425.527C339.8 434.654 349.93 439.536 360.41 439.536V441.366C316.061 441.366 280.109 358.604 280.109 256.511C280.109 154.418 316.061 71.6553 360.41 71.6553C404.759 71.6553 440.711 154.418 440.711 256.511C440.711 358.604 404.759 441.366 360.41 441.366V439.536C370.891 439.536 381.02 434.654 390.395 425.527C399.778 416.391 408.311 403.08 415.517 386.491C429.927 353.319 438.886 307.366 438.886 256.511Z" fill="black"/>
<path d="M438.878 256.511C438.878 205.68 428.864 159.752 412.758 126.599C396.59 93.3197 374.607 73.4855 350.905 73.4855C327.204 73.4855 305.22 93.3197 289.053 126.599C272.947 159.752 262.932 205.68 262.932 256.511C262.932 307.342 272.947 353.27 289.053 386.423C305.22 419.702 327.204 439.536 350.905 439.536V441.366C301.307 441.366 261.1 358.604 261.1 256.511C261.1 154.418 301.307 71.6553 350.905 71.6553C400.504 71.6553 440.711 154.418 440.711 256.511C440.711 358.604 400.504 441.366 350.905 441.366V439.536C374.607 439.536 396.59 419.702 412.758 386.423C428.864 353.27 438.878 307.342 438.878 256.511Z" fill="black"/>
<path d="M438.878 256.511C438.878 205.705 427.849 159.797 410.105 126.659C392.319 93.4443 368.057 73.4855 341.728 73.4855C315.399 73.4855 291.137 93.4443 273.352 126.659C255.607 159.797 244.578 205.705 244.578 256.511C244.578 307.317 255.607 353.224 273.352 386.362C291.137 419.577 315.399 439.536 341.728 439.536V441.366C287.061 441.366 242.745 358.604 242.745 256.511C242.745 154.418 287.061 71.6553 341.728 71.6553C396.395 71.6553 440.711 154.418 440.711 256.511C440.711 358.604 396.395 441.366 341.728 441.366V439.536C368.057 439.536 392.319 419.577 410.105 386.362C427.849 353.224 438.878 307.317 438.878 256.511Z" fill="black"/>
<path d="M438.879 256.511C438.879 205.741 426.433 159.867 406.408 126.745C386.361 93.5888 358.919 73.4855 328.946 73.4855C298.973 73.4855 271.531 93.5888 251.485 126.745C231.459 159.867 219.013 205.741 219.013 256.511C219.013 307.28 231.459 353.155 251.485 386.277C271.531 419.433 298.973 439.536 328.946 439.536V441.366C267.22 441.366 217.181 358.604 217.181 256.511C217.181 154.418 267.22 71.6553 328.946 71.6553C390.673 71.6553 440.712 154.418 440.712 256.511C440.712 358.604 390.673 441.366 328.946 441.366V439.536C358.919 439.536 386.361 419.433 406.408 386.277C426.433 353.155 438.879 307.28 438.879 256.511Z" fill="black"/>
<path d="M438.88 256.511C438.88 205.79 424.625 159.951 401.672 126.842C378.713 93.7251 347.177 73.4855 312.558 73.4855C277.939 73.4855 246.402 93.7251 223.444 126.842C200.491 159.951 186.235 205.79 186.235 256.511C186.235 307.231 200.491 353.071 223.444 386.18C246.402 419.297 277.939 439.536 312.558 439.536V441.366C241.781 441.366 184.404 358.604 184.404 256.511C184.404 154.418 241.781 71.6553 312.558 71.6553C383.335 71.6553 440.711 154.418 440.711 256.511C440.711 358.604 383.335 441.366 312.558 441.366V439.536C347.177 439.536 378.713 419.297 401.672 386.18C424.625 353.071 438.88 307.231 438.88 256.511Z" fill="black"/>
<path d="M438.879 256.511C438.879 155.031 372.868 73.4855 292.237 73.4855C211.606 73.4855 145.596 155.031 145.596 256.511C145.596 357.991 211.606 439.536 292.237 439.536V441.366C210.237 441.366 143.763 358.604 143.763 256.511C143.763 154.418 210.237 71.6553 292.237 71.6553C374.237 71.6553 440.712 154.418 440.712 256.511C440.712 358.604 374.237 441.366 292.237 441.366V439.536C372.868 439.536 438.879 357.991 438.879 256.511Z" fill="black"/>
<path d="M438.882 256.511C438.882 155.245 364.981 73.4855 274.21 73.4855C183.439 73.4855 109.539 155.245 109.539 256.511C109.539 357.777 183.439 439.536 274.21 439.536V441.366C182.254 441.366 107.709 358.604 107.709 256.511C107.709 154.418 182.254 71.6553 274.21 71.6553C366.166 71.6553 440.711 154.418 440.711 256.511C440.711 358.604 366.166 441.366 274.21 441.366V439.536C364.981 439.536 438.882 357.777 438.882 256.511Z" fill="black"/>
</svg>
