<svg width="250" height="250" viewBox="0 0 250 250" fill="none" xmlns="http://www.w3.org/2000/svg">
<g clip-path="url(#clip0_1218_244)">
<circle cx="124.565" cy="124.606" r="102.932" stroke="black" stroke-width="3"/>
<path d="M208.843 21.6733C209.668 21.6733 210.66 22.1003 211.813 23.3237C212.967 24.547 214.152 26.4345 215.323 29.0024C217.662 34.1293 219.807 41.6433 221.621 51.0454C225.245 69.8249 227.497 95.8335 227.497 124.606C227.497 153.378 225.245 179.387 221.621 198.167C219.807 207.568 217.662 215.082 215.323 220.208C214.152 222.776 212.967 224.664 211.813 225.887C210.66 227.111 209.668 227.538 208.843 227.538C208.017 227.538 207.027 227.11 205.873 225.887C204.719 224.664 203.535 222.776 202.363 220.208C200.024 215.082 197.88 207.568 196.065 198.167C192.441 179.387 190.189 153.378 190.189 124.606C190.189 95.8334 192.441 69.8249 196.065 51.0454C197.88 41.6433 200.024 34.1293 202.363 29.0024C203.535 26.4346 204.719 24.547 205.873 23.3237C207.027 22.1006 208.017 21.6734 208.843 21.6733Z" stroke="black" stroke-width="3"/>
<path d="M199.5 21.5C202.803 21.5 206.292 23.8853 209.735 29.0449C213.142 34.1485 216.267 41.6324 218.916 51.0146C224.207 69.7589 227.5 95.7405 227.5 124.5C227.5 153.259 224.207 179.241 218.916 197.985C216.267 207.368 213.142 214.851 209.735 219.955C206.292 225.115 202.803 227.5 199.5 227.5C196.197 227.5 192.708 225.115 189.265 219.955C185.858 214.851 182.733 207.368 180.084 197.985C174.793 179.241 171.5 153.259 171.5 124.5C171.5 95.7405 174.793 69.7589 180.084 51.0146C182.733 41.6324 185.858 34.1485 189.265 29.0449C192.708 23.8853 196.197 21.5 199.5 21.5Z" stroke="black" stroke-width="3"/>
<path d="M189 21.5C193.952 21.5 198.84 24.1163 203.458 29.2188C208.076 34.3212 212.303 41.7887 215.884 51.1436C223.042 69.8434 227.5 95.7784 227.5 124.5C227.5 153.222 223.042 179.157 215.884 197.856C212.303 207.211 208.076 214.679 203.458 219.781C198.84 224.884 193.952 227.5 189 227.5C184.048 227.5 179.16 224.884 174.542 219.781C169.924 214.679 165.697 207.211 162.116 197.856C154.958 179.157 150.5 153.222 150.5 124.5C150.5 95.7784 154.958 69.8434 162.116 51.1436C165.697 41.7887 169.924 34.3212 174.542 29.2188C179.16 24.1163 184.048 21.5 189 21.5Z" stroke="black" stroke-width="3"/>
<path d="M171.125 21.6733C186.315 21.6736 200.379 32.7307 210.732 51.2944C221.058 69.8089 227.491 95.4881 227.491 123.934C227.491 152.38 221.058 178.059 210.732 196.574C200.379 215.138 186.315 226.196 171.125 226.196C155.935 226.196 141.87 215.138 131.517 196.574C121.191 178.059 114.758 152.38 114.758 123.934C114.758 95.4881 121.191 69.8089 131.517 51.2944C141.87 32.7305 155.935 21.6733 171.125 21.6733Z" stroke="black" stroke-width="3"/>
<path d="M149.514 21.6323C192.246 21.6325 227.498 66.6315 227.498 122.995C227.498 179.358 192.246 224.356 149.514 224.356C106.781 224.356 71.5295 179.358 71.5293 122.995C71.5293 66.6314 106.781 21.6323 149.514 21.6323Z" stroke="black" stroke-width="3"/>
</g>
<defs>
<clipPath id="clip0_1218_244">
<rect width="250" height="250" fill="white"/>
</clipPath>
</defs>
</svg>
