<svg width="202" height="53" viewBox="0 0 202 53" fill="none" xmlns="http://www.w3.org/2000/svg">
<circle cx="175.832" cy="26.1682" r="25.6682" stroke="white"/>
<path d="M196.95 0.5C197.11 0.5 197.328 0.582277 197.604 0.875C197.88 1.16761 198.17 1.62667 198.461 2.26367C199.041 3.53522 199.576 5.40696 200.03 7.75879C200.936 12.4546 201.5 18.9637 201.5 26.168C201.5 33.3723 200.936 39.8813 200.03 44.5771C199.576 46.9292 199.041 48.8006 198.461 50.0723C198.17 50.7096 197.88 51.1693 197.604 51.4619C197.328 51.7546 197.11 51.8359 196.95 51.8359C196.79 51.8359 196.573 51.7542 196.297 51.4619C196.021 51.1693 195.73 50.7096 195.439 50.0723C194.859 48.8006 194.324 46.9291 193.87 44.5771C192.964 39.8813 192.4 33.3723 192.4 26.168C192.4 18.9637 192.964 12.4546 193.87 7.75879C194.324 5.40693 194.859 3.53523 195.439 2.26367C195.73 1.62644 196.021 1.16763 196.297 0.875C196.573 0.58246 196.79 0.500067 196.95 0.5Z" stroke="white"/>
<path d="M195.113 0.5C195.791 0.500185 196.566 1.03011 197.369 2.32031C198.155 3.58414 198.882 5.44669 199.499 7.79199C200.731 12.4751 201.499 18.9722 201.499 26.168C201.499 33.364 200.731 39.8617 199.499 44.5449C198.882 46.89 198.155 48.7518 197.369 50.0156C196.566 51.3059 195.791 51.8358 195.113 51.8359C194.436 51.8359 193.66 51.306 192.857 50.0156C192.071 48.7519 191.345 46.89 190.728 44.5449C189.495 39.8617 188.727 33.364 188.727 26.168C188.727 18.9721 189.495 12.4751 190.728 7.79199C191.345 5.44669 192.071 3.58414 192.857 2.32031C193.66 1.03012 194.436 0.5 195.113 0.5Z" stroke="white"/>
<path d="M196.032 0.5C196.286 0.5 196.574 0.610111 196.901 0.90332C197.231 1.19943 197.574 1.66014 197.916 2.29395C198.599 3.56085 199.23 5.42699 199.766 7.77539C200.835 12.4647 201.501 18.9679 201.501 26.168C201.501 33.368 200.835 39.8712 199.766 44.5605C199.23 46.9092 198.599 48.776 197.916 50.043C197.574 50.6767 197.231 51.1365 196.901 51.4326C196.574 51.726 196.286 51.8359 196.032 51.8359C195.779 51.8358 195.491 51.7258 195.164 51.4326C194.834 51.1365 194.491 50.6767 194.149 50.043C193.466 48.776 192.835 46.9092 192.3 44.5605C191.23 39.8712 190.564 33.3681 190.564 26.168C190.564 18.9679 191.23 12.4647 192.3 7.77539C192.835 5.42696 193.466 3.56084 194.149 2.29395C194.491 1.66014 194.834 1.19943 195.164 0.90332C195.491 0.610329 195.779 0.500118 196.032 0.5Z" stroke="white"/>
<path d="M193.736 0.5C194.646 0.500015 195.603 1.08494 196.552 2.35547C197.494 3.61717 198.364 5.47517 199.103 7.81543C200.579 12.49 201.5 18.9786 201.5 26.168C201.5 33.3575 200.579 39.8468 199.103 44.5215C198.364 46.8616 197.494 48.7188 196.552 49.9805C195.603 51.2512 194.647 51.8359 193.736 51.8359C192.826 51.8359 191.869 51.2512 190.92 49.9805C189.978 48.7188 189.109 46.8614 188.37 44.5215C186.894 39.8468 185.973 33.3575 185.973 26.168C185.973 18.9786 186.894 12.49 188.37 7.81543C189.109 5.47526 189.978 3.61717 190.92 2.35547C191.869 1.08473 192.826 0.5 193.736 0.5Z" stroke="white"/>
<path d="M192.359 0.5C193.493 0.5 194.635 1.12166 195.735 2.38477C196.835 3.64668 197.848 5.50152 198.708 7.83691C200.427 12.504 201.501 18.9851 201.501 26.168C201.501 33.3508 200.427 39.8319 198.708 44.499C197.848 46.8344 196.834 48.6892 195.735 49.9512C194.635 51.2143 193.493 51.8359 192.359 51.8359C191.226 51.8358 190.085 51.2142 188.984 49.9512C187.885 48.6892 186.872 46.8345 186.012 44.499C184.292 39.8319 183.219 33.3509 183.219 26.168C183.219 18.9851 184.292 12.504 186.012 7.83691C186.872 5.50158 187.885 3.64665 188.984 2.38477C190.084 1.1219 191.226 0.500104 192.359 0.5Z" stroke="white"/>
<path d="M190.981 0.5C192.33 0.500119 193.659 1.14747 194.915 2.40918C196.173 3.67306 197.33 5.52714 198.312 7.8584C200.274 12.5188 201.499 18.992 201.499 26.168C201.499 33.3438 200.274 39.8171 198.312 44.4775C197.33 46.8088 196.173 48.6629 194.915 49.9268C193.659 51.1886 192.33 51.8358 190.981 51.8359C189.632 51.8359 188.303 51.1887 187.047 49.9268C185.789 48.6629 184.632 46.8087 183.65 44.4775C181.688 39.8171 180.463 33.3438 180.463 26.168C180.463 18.992 181.688 12.5188 183.65 7.8584C184.632 5.52714 185.789 3.67306 187.047 2.40918C188.303 1.14728 189.632 0.5 190.981 0.5Z" stroke="white"/>
<path d="M188.687 0.5C192.076 0.5 195.275 3.21242 197.655 7.8916C200.022 12.5432 201.5 19.0041 201.5 26.168C201.5 33.3321 200.022 39.7936 197.655 44.4453C195.275 49.1244 192.076 51.8359 188.687 51.8359C185.297 51.8359 182.098 49.1244 179.718 44.4453C177.351 39.7936 175.873 33.3321 175.873 26.168C175.873 19.0042 177.351 12.5432 179.718 7.8916C182.098 3.21249 185.297 0.500085 188.687 0.5Z" stroke="white"/>
<path d="M185.014 0.5C189.479 0.5 193.588 3.28857 196.605 7.93652C199.619 12.5797 201.5 19.0242 201.5 26.168C201.5 33.3117 199.619 39.7562 196.605 44.3994C193.588 49.0475 189.479 51.8359 185.014 51.8359C180.549 51.8359 176.439 49.0474 173.422 44.3994C170.408 39.7562 168.527 33.3117 168.527 26.168C168.527 19.0242 170.408 12.5797 173.422 7.93652C176.439 3.28856 180.549 0.500015 185.014 0.5Z" stroke="white"/>
<path d="M180.882 0.5C192.174 0.5 201.5 11.8865 201.5 26.168C201.5 40.4496 192.174 51.8359 180.882 51.8359C169.59 51.8359 160.264 40.4496 160.264 26.168C160.264 11.8865 169.59 0.500012 180.882 0.5Z" stroke="white"/>
<path d="M120.458 52C109.092 52 100.846 46.1379 100.846 37.1724C100.846 31.1034 105.835 26.6207 109.993 25.5172C105.835 23.6552 102.578 19.7241 102.578 14.4828C102.578 5.72414 110.271 0 120.458 0C130.575 0 138.268 5.72414 138.268 14.4828C138.268 19.7241 135.011 23.6552 130.853 25.5172C135.011 26.6207 140 31.1034 140 37.1724C140 46.1379 131.753 52 120.458 52ZM120.458 21.8621C125.17 21.8621 128.912 19.3793 128.912 14.6897C128.912 10.069 125.17 7.51724 120.458 7.51724C115.745 7.51724 111.934 10.069 111.934 14.6897C111.934 19.3793 115.745 21.8621 120.458 21.8621ZM120.458 44.3448C126.209 44.3448 130.021 41.3103 130.021 36.8276C130.021 32.2069 126.209 29.2414 120.458 29.2414C114.636 29.2414 110.825 32.2069 110.825 36.8276C110.825 41.3103 114.636 44.3448 120.458 44.3448Z" fill="white"/>
<path d="M89.7796 9.58626H64V0.827637H100.729V9.51729C89.0866 21.5863 85.7602 35.2414 85.7602 51.1725H75.2959C75.2959 33.5173 80.632 19.3794 89.7796 9.58626Z" fill="white"/>
<path d="M61.1271 10.2069C61.1271 15.8621 56.5533 20.4138 50.8707 20.4138C45.2574 20.4138 40.6836 15.8621 40.6836 10.2069C40.6836 4.55172 45.2574 0 50.8707 0C56.5533 0 61.1271 4.55172 61.1271 10.2069ZM46.5048 10.2069C46.5048 12.6897 48.4452 14.6897 50.8707 14.6897C53.3655 14.6897 55.2366 12.6897 55.2366 10.2069C55.2366 7.72414 53.3655 5.72414 50.8707 5.72414C48.4452 5.72414 46.5048 7.72414 46.5048 10.2069Z" fill="white"/>
<path d="M9.97918 33.1035V51.1725H0V0.827637H20.6514C31.1157 0.827637 38.5307 6.34487 38.5307 16.9656C38.5307 27.4483 31.1157 33.1035 20.6514 33.1035H9.97918ZM20.1663 9.37936H9.97918V24.5518H20.1663C25.7103 24.5518 28.6902 21.5173 28.6902 16.9656C28.6902 12.2759 25.7103 9.37936 20.1663 9.37936Z" fill="white"/>
</svg>
